<svg id="Layer_1" data-name="Layer 1" xmlns="http://www.w3.org/2000/svg" width="204" height="41.44" viewBox="0 0 204 41.44"><defs><style>.cls-1{fill:#dd285d;}.cls-2{fill:#fff;}</style></defs><title>Logo_with_white_text</title><rect class="cls-1" width="41.44" height="41.44" rx="4.84"/><rect class="cls-2" x="16.23" y="12.03" width="8.69" height="2.61"/><rect class="cls-2" x="13.62" y="16.95" width="13.91" height="2.61"/><rect class="cls-2" x="10.14" y="21.88" width="20.86" height="2.61"/><rect class="cls-2" x="7.24" y="26.8" width="26.95" height="2.61"/><path class="cls-2" d="M57.45,29.38V14.27h6.66l.16,1.06a10.29,10.29,0,0,1,2.26-.93A11.15,11.15,0,0,1,69.4,14V19c-.53,0-1.12.08-1.77.16s-1.26.19-1.85.31a7.32,7.32,0,0,0-1.48.43v9.46Z" transform="translate(0 -0.32)"/><path class="cls-2" d="M78.83,29.7a12.2,12.2,0,0,1-4.73-.87,7.31,7.31,0,0,1-3.27-2.63,7.61,7.61,0,0,1-1.18-4.31,8,8,0,0,1,2.09-5.77Q73.82,14,78,14a8.91,8.91,0,0,1,6,1.89,6.67,6.67,0,0,1,2.2,5.31v2.61H75.93q.84,1.76,4.66,1.76a15.09,15.09,0,0,0,2.71-.24,11.47,11.47,0,0,0,2.1-.56v3.89A15.75,15.75,0,0,1,78.83,29.7Zm-2.9-9.5h4.4v-.41a1.58,1.58,0,0,0-.46-1.15,2.25,2.25,0,0,0-1.64-.48,2.37,2.37,0,0,0-1.79.55A2.09,2.09,0,0,0,75.93,20.2Z" transform="translate(0 -0.32)"/><path class="cls-2" d="M94.48,29.7A8.87,8.87,0,0,1,90.75,29a5.27,5.27,0,0,1-2.47-2.38,9.19,9.19,0,0,1-.87-4.31,9.46,9.46,0,0,1,1-4.64,6.88,6.88,0,0,1,2.72-2.76A7.71,7.71,0,0,1,94.9,14a8.68,8.68,0,0,1,1.83.19,6,6,0,0,1,1.58.54V7.9h6.85V29.38H99.23l-.32-1.08a7.12,7.12,0,0,1-1.94,1A7.7,7.7,0,0,1,94.48,29.7Zm2-4.91a2.54,2.54,0,0,0,1-.19,3.57,3.57,0,0,0,.83-.51V19.53a2.75,2.75,0,0,0-1.85-.63,1.66,1.66,0,0,0-1.59.87,5.41,5.41,0,0,0-.48,2.54c0,1.1.17,1.79.52,2.07A2.45,2.45,0,0,0,96.46,24.79Z" transform="translate(0 -0.32)"/><path class="cls-2" d="M115.87,29.7a12.33,12.33,0,0,1-4.83-.86,6.88,6.88,0,0,1-3.2-2.6,7.79,7.79,0,0,1-1.15-4.41,7.89,7.89,0,0,1,1.15-4.43,6.77,6.77,0,0,1,3.22-2.6,12.63,12.63,0,0,1,4.78-.84,19.11,19.11,0,0,1,3.17.24,9.91,9.91,0,0,1,2.69.84v4.78a10,10,0,0,0-4.33-.92,4.76,4.76,0,0,0-2.77.65,2.6,2.6,0,0,0-.93,2.28,2.62,2.62,0,0,0,.93,2.25,4.73,4.73,0,0,0,2.8.68,8.61,8.61,0,0,0,2.26-.3,10.48,10.48,0,0,0,2.11-.81v5a11.07,11.07,0,0,1-2.73.81A19.46,19.46,0,0,1,115.87,29.7Z" transform="translate(0 -0.32)"/><path class="cls-2" d="M128.3,29.7a6.68,6.68,0,0,1-2.64-.51,4.26,4.26,0,0,1-2-1.61,5,5,0,0,1-.73-2.82A4.66,4.66,0,0,1,124.57,21a7.54,7.54,0,0,1,4.88-1.32h3.66v-.22a1,1,0,0,0-.71-1,5.71,5.71,0,0,0-2.31-.34,18.95,18.95,0,0,0-5.23.8V15.07a13.69,13.69,0,0,1,3-.81,21.87,21.87,0,0,1,3.57-.3,10.35,10.35,0,0,1,5.92,1.51,5.36,5.36,0,0,1,2.24,4.77v9.14h-6l-.28-1.14a6,6,0,0,1-2,1.06A9.71,9.71,0,0,1,128.3,29.7Zm2.49-3.85a2.93,2.93,0,0,0,1.35-.28,3.38,3.38,0,0,0,1-.68V23.26H131c-1.13,0-1.69.44-1.69,1.31S129.77,25.85,130.79,25.85Z" transform="translate(0 -0.32)"/><path class="cls-2" d="M142,29.38V14.27h6.66l.16,1.06a10.29,10.29,0,0,1,2.26-.93A11.15,11.15,0,0,1,154,14V19c-.53,0-1.12.08-1.77.16s-1.26.19-1.85.31a7.32,7.32,0,0,0-1.48.43v9.46Z" transform="translate(0 -0.32)"/><path class="cls-2" d="M155.49,36V14.27h5.93l.32,1.12a8.05,8.05,0,0,1,9.67.38q1.83,1.82,1.83,5.9t-2,6a7.23,7.23,0,0,1-5.4,2,9.45,9.45,0,0,1-1.91-.19,7.3,7.3,0,0,1-1.63-.51v7Zm8.67-11.25a1.88,1.88,0,0,0,1.56-.68,3.89,3.89,0,0,0,.54-2.35,3.52,3.52,0,0,0-.52-2.23,2,2,0,0,0-1.55-.6,2.7,2.7,0,0,0-1.85.7v4.56a3.38,3.38,0,0,0,.81.46A3.19,3.19,0,0,0,164.16,24.76Z" transform="translate(0 -0.32)"/><path class="cls-2" d="M183.63,29.7a12.2,12.2,0,0,1-4.73-.87,7.31,7.31,0,0,1-3.27-2.63,7.61,7.61,0,0,1-1.18-4.31,8,8,0,0,1,2.09-5.77Q178.63,14,182.8,14a8.92,8.92,0,0,1,6,1.89,6.67,6.67,0,0,1,2.2,5.31v2.61H180.73c.55,1.17,2.11,1.76,4.66,1.76a15.09,15.09,0,0,0,2.71-.24,11.47,11.47,0,0,0,2.1-.56v3.89A15.75,15.75,0,0,1,183.63,29.7Zm-2.9-9.5h4.4v-.41a1.58,1.58,0,0,0-.46-1.15,2.25,2.25,0,0,0-1.64-.48,2.37,2.37,0,0,0-1.79.55A2.09,2.09,0,0,0,180.73,20.2Z" transform="translate(0 -0.32)"/><path class="cls-2" d="M199.63,29.7c-2.16,0-3.73-.53-4.68-1.61a6.27,6.27,0,0,1-1.44-4.35V19.28h-1.88v-5h1.88v-3l6.86-1.5v4.52h3.28l-.19,5h-3.09v4c0,1,.57,1.53,1.72,1.53a6.12,6.12,0,0,0,1.91-.32v4.4a10.32,10.32,0,0,1-2,.57A13.16,13.16,0,0,1,199.63,29.7Z" transform="translate(0 -0.32)"/></svg>