<svg xmlns="http://www.w3.org/2000/svg" version="1.1" xmlns:xlink="http://www.w3.org/1999/xlink" xmlns:svgjs="http://svgjs.dev/svgjs" width="1000" height="623" viewBox="0 0 1000 623"><g transform="matrix(1,0,0,1,-0.6060606060606233,0.2522267206477409)"><svg viewBox="0 0 396 247" data-background-color="#ffffff" preserveAspectRatio="xMidYMid meet" height="623" width="1000" xmlns="http://www.w3.org/2000/svg" xmlns:xlink="http://www.w3.org/1999/xlink"><g id="tight-bounds" transform="matrix(1,0,0,1,0.2400000000000091,-0.09999999999999432)"><svg viewBox="0 0 395.52 247.2" height="247.2" width="395.52"><g><svg></svg></g><g><svg viewBox="0 0 395.52 247.2" height="247.2" width="395.52"><g transform="matrix(1,0,0,1,148.49015064935065,47.215199999999996)"><svg viewBox="0 0 98.5396987012987 152.7696" height="152.7696" width="98.5396987012987"><g><svg viewBox="0 0 98.5396987012987 152.7696" height="152.7696" width="98.5396987012987"><g><svg viewBox="0 0 98.5396987012987 152.7696" height="152.7696" width="98.5396987012987"><g><svg viewBox="0 0 98.5396987012987 152.7696" height="152.7696" width="98.5396987012987"><g id="textblocktransform"><svg viewBox="0 0 98.5396987012987 152.7696" height="152.7696" width="98.5396987012987" id="textblock"><g><svg viewBox="0 0 98.5396987012987 152.7696" height="152.7696" width="98.5396987012987"><g transform="matrix(1,0,0,1,0,0)"><svg width="98.5396987012987" viewBox="0.25 -34.65 22.35 34.65" height="152.7696" data-palette-color="#0054ff"><path d="M0.25-34.65L22.6-34.65 21.8-28.65 15.15-28.65 15.15 0 7.3 0 7.3-28.65 0.25-28.65 0.25-34.65Z" opacity="1" transform="matrix(1,0,0,1,0,0)" fill="#0054ff" class="wordmark-text-0" data-fill-palette-color="primary" id="text-0"></path></svg></g></svg></g></svg></g></svg></g></svg></g></svg></g></svg></g><path d="M64.729 41.215L64.729 0 311.929 0 311.929 247.2 64.729 247.2 64.729 205.985 78.505 205.985 78.505 233.423 298.152 233.423 298.152 13.777 78.505 13.777 78.505 41.215Z" fill="#0054ff" stroke="transparent" data-fill-palette-color="primary"></path></svg></g><defs></defs></svg><rect width="395.52" height="247.2" fill="none" stroke="none" visibility="hidden"></rect></g></svg></g></svg>