<?xml version="1.0" encoding="iso-8859-1"?>
<!-- Uploaded to: SVG Repo, www.svgrepo.com, Generator: SVG Repo Mixer Tools -->
<svg version="1.1" id="Layer_1" xmlns="http://www.w3.org/2000/svg" xmlns:xlink="http://www.w3.org/1999/xlink" 
	 viewBox="0 0 390.206 390.206" xml:space="preserve">
<rect x="73.18" y="21.657" style="fill:#FFC10D;" width="243.911" height="346.828"/>
<g>
	<path style="fill:#FFFFFF;" d="M153.406,161.487h-31.418c-3.232-12.477-3.232-24.372,0-36.848h31.418
		C152.307,138.214,152.307,150.691,153.406,161.487z"/>
	<path style="fill:#FFFFFF;" d="M164.202,74.796c-3.814,8.145-6.529,17.907-8.145,28.703h-24.954
		C139.313,91.022,150.691,80.743,164.202,74.796z"/>
	<path style="fill:#FFFFFF;" d="M156.057,183.208c2.133,10.861,4.848,20.558,8.145,28.703
		c-13.576-5.947-25.471-15.709-33.034-28.703H156.057z"/>
	<path style="fill:#FFFFFF;" d="M177.778,183.208h34.715c-4.848,23.273-12.994,35.749-17.325,35.749
		S182.626,206.481,177.778,183.208z"/>
	<path style="fill:#FFFFFF;" d="M212.428,103.499h-34.715c4.848-23.273,12.994-35.749,17.325-35.749
		C199.37,67.749,207.58,80.226,212.428,103.499z"/>
	<path style="fill:#FFFFFF;" d="M215.725,124.638c0.517,12.477,0.517,24.954,0,36.848h-40.663c-1.099-11.895-1.099-24.372,0-36.848
		H215.725z"/>
	<path style="fill:#FFFFFF;" d="M234.149,183.725h24.954c-7.564,12.477-19.523,22.238-33.034,28.703
		C229.818,203.766,232.469,194.004,234.149,183.725z"/>
	<path style="fill:#FFFFFF;" d="M234.149,103.499c-2.133-10.861-4.848-20.622-8.145-28.703
		c13.576,5.947,25.471,15.709,33.034,28.703C259.038,103.499,234.149,103.499,234.149,103.499z"/>
	<path style="fill:#FFFFFF;" d="M268.283,161.487h-30.901c1.099-12.477,1.099-24.372,0-36.848h30.901
		C271.515,136.598,271.515,149.01,268.283,161.487z"/>
</g>
<g>
	<path style="fill:#194F82;" d="M327.887,0H62.319c-5.947,0-10.861,4.848-10.861,10.861v368.485c0,5.947,4.848,10.861,10.861,10.861
		h265.568c5.947,0,10.861-4.848,10.861-10.861V10.861C338.747,4.848,333.834,0,327.887,0z M317.026,368.549H73.18V21.657h243.911
		v346.893H317.026z"/>
	<path style="fill:#194F82;" d="M195.103,46.093c-53.657,0-97.552,43.895-97.552,97.552s43.895,97.552,97.552,97.552
		s97.552-43.895,97.552-97.552S248.76,46.093,195.103,46.093z M259.038,103.499h-24.954c-2.198-10.861-4.848-20.622-8.145-28.703
		C239.515,80.743,251.475,90.505,259.038,103.499z M195.103,67.749c4.331,0,12.477,12.477,17.325,35.749h-34.715
		C182.626,80.226,190.772,67.749,195.103,67.749z M121.923,161.487c-3.232-12.477-3.232-24.372,0-36.848h31.418
		c-1.099,13.576-1.099,25.988,0,36.848H121.923z M131.168,183.208h24.954c2.198,10.861,4.848,20.622,8.145,28.703
		C150.691,205.964,138.731,196.202,131.168,183.208z M156.057,103.499h-24.954c8.145-12.477,19.523-22.756,33.034-28.703
		C160.388,82.941,157.737,92.703,156.057,103.499z M195.103,218.958c-4.331,0-12.477-12.477-17.325-35.749h34.715
		C207.58,206.481,199.434,218.958,195.103,218.958z M215.725,161.487h-40.663c-1.099-11.895-1.099-24.372,0-36.848h40.663
		C216.242,137.115,216.242,149.592,215.725,161.487z M226.004,212.428c3.814-8.663,6.529-18.424,8.145-28.703h24.954
		C251.475,196.202,239.515,205.964,226.004,212.428z M237.382,161.487c1.099-12.477,1.099-24.372,0-36.848h30.901
		c3.232,11.895,3.232,24.372,0,36.848H237.382z"/>
	<path style="fill:#194F82;" d="M270.416,272.032H119.79c-5.947,0-10.861,4.848-10.861,10.861c0,5.947,4.848,10.861,10.861,10.861
		h150.109c5.947,0,10.861-4.848,10.861-10.861C281.277,276.945,276.428,272.032,270.416,272.032z"/>
	<path style="fill:#194F82;" d="M270.416,322.457H119.79c-5.947,0-10.861,4.848-10.861,10.861s4.848,10.861,10.861,10.861h150.109
		c5.947,0,10.861-4.848,10.861-10.861S276.428,322.457,270.416,322.457z"/>
</g>
</svg>